<svg width="142" height="29" viewBox="0 0 142 29" fill="none" xmlns="http://www.w3.org/2000/svg">
<path d="M13.597 0.192998L23.113 24.724C23.503 25.712 23.945 26.375 24.439 26.713C24.933 27.025 25.388 27.194 25.804 27.22V28C25.284 27.948 24.647 27.922 23.893 27.922C23.139 27.896 22.385 27.883 21.631 27.883C20.617 27.883 19.668 27.896 18.784 27.922C17.9 27.922 17.185 27.948 16.639 28V27.22C17.965 27.168 18.81 26.947 19.174 26.557C19.538 26.141 19.46 25.27 18.94 23.944L11.686 4.561L12.31 4.054L5.524 21.682C5.108 22.722 4.861 23.606 4.783 24.334C4.705 25.036 4.77 25.595 4.978 26.011C5.212 26.427 5.589 26.726 6.109 26.908C6.655 27.09 7.331 27.194 8.137 27.22V28C7.409 27.948 6.642 27.922 5.836 27.922C5.056 27.896 4.328 27.883 3.652 27.883C3.002 27.883 2.443 27.896 1.975 27.922C1.533 27.922 1.117 27.948 0.727 28V27.22C1.247 27.09 1.78 26.791 2.326 26.323C2.872 25.829 3.366 24.997 3.808 23.827L12.973 0.192998C13.077 0.192998 13.181 0.192998 13.285 0.192998C13.389 0.192998 13.493 0.192998 13.597 0.192998ZM18.355 16.768V17.548H6.733L7.123 16.768H18.355ZM39.5274 7.369C40.5674 7.369 41.4514 7.538 42.1794 7.876C42.9074 8.214 43.4404 8.526 43.7784 8.812C44.6364 9.514 45.1564 9.046 45.3384 7.408H46.2354C46.1834 8.136 46.1444 9.007 46.1184 10.021C46.0924 11.009 46.0794 12.348 46.0794 14.038H45.1824C45.0264 13.076 44.7534 12.14 44.3634 11.23C43.9994 10.32 43.4534 9.579 42.7254 9.007C41.9974 8.409 41.0484 8.11 39.8784 8.11C38.9684 8.11 38.2014 8.37 37.5774 8.89C36.9794 9.384 36.6804 10.125 36.6804 11.113C36.6804 11.893 36.9144 12.569 37.3824 13.141C37.8504 13.687 38.4614 14.207 39.2154 14.701C39.9694 15.169 40.7884 15.689 41.6724 16.261C42.6604 16.885 43.5574 17.522 44.3634 18.172C45.1694 18.822 45.8064 19.537 46.2744 20.317C46.7684 21.097 47.0154 22.02 47.0154 23.086C47.0154 24.282 46.7034 25.283 46.0794 26.089C45.4554 26.895 44.6364 27.506 43.6224 27.922C42.6344 28.338 41.5424 28.546 40.3464 28.546C39.7744 28.546 39.2284 28.494 38.7084 28.39C38.2144 28.312 37.7334 28.182 37.2654 28C37.0054 27.87 36.7324 27.714 36.4464 27.532C36.1864 27.35 35.9264 27.155 35.6664 26.947C35.4064 26.739 35.1724 26.752 34.9644 26.986C34.7564 27.194 34.6004 27.623 34.4964 28.273H33.5994C33.6514 27.441 33.6904 26.427 33.7164 25.231C33.7424 24.035 33.7554 22.449 33.7554 20.473H34.6524C34.8344 21.929 35.0944 23.203 35.4324 24.295C35.7704 25.387 36.3034 26.245 37.0314 26.869C37.7594 27.467 38.7734 27.766 40.0734 27.766C40.5934 27.766 41.1134 27.649 41.6334 27.415C42.1794 27.181 42.6344 26.791 42.9984 26.245C43.3624 25.699 43.5444 24.971 43.5444 24.061C43.5444 22.917 43.1284 21.981 42.2964 21.253C41.4644 20.525 40.4114 19.758 39.1374 18.952C38.2014 18.354 37.3174 17.756 36.4854 17.158C35.6794 16.56 35.0164 15.884 34.4964 15.13C34.0024 14.376 33.7554 13.466 33.7554 12.4C33.7554 11.23 34.0154 10.281 34.5354 9.553C35.0814 8.799 35.7964 8.253 36.6804 7.915C37.5644 7.551 38.5134 7.369 39.5274 7.369ZM61.3778 28.273C60.3118 28.273 59.3888 28.078 58.6088 27.688C57.8288 27.272 57.2308 26.7 56.8148 25.972C56.4248 25.244 56.2298 24.399 56.2298 23.437C56.2298 22.293 56.4898 21.357 57.0098 20.629C57.5558 19.901 58.2448 19.316 59.0768 18.874C59.9088 18.432 60.7798 18.068 61.6898 17.782C62.6258 17.47 63.5098 17.184 64.3418 16.924C65.1738 16.638 65.8498 16.313 66.3698 15.949C66.9158 15.585 67.1888 15.104 67.1888 14.506V12.088C67.1888 10.996 67.0198 10.164 66.6818 9.592C66.3698 9.02 65.9408 8.643 65.3948 8.461C64.8488 8.253 64.2378 8.149 63.5618 8.149C62.9118 8.149 62.2098 8.24 61.4558 8.422C60.7278 8.604 60.1428 8.981 59.7008 9.553C60.1948 9.657 60.6238 9.917 60.9878 10.333C61.3518 10.749 61.5338 11.282 61.5338 11.932C61.5338 12.582 61.3258 13.102 60.9098 13.492C60.4938 13.856 59.9608 14.038 59.3108 14.038C58.5568 14.038 57.9978 13.804 57.6338 13.336C57.2958 12.842 57.1268 12.296 57.1268 11.698C57.1268 11.022 57.2958 10.476 57.6338 10.06C57.9718 9.644 58.4008 9.254 58.9208 8.89C59.5188 8.474 60.2858 8.123 61.2218 7.837C62.1838 7.525 63.2628 7.369 64.4588 7.369C65.5248 7.369 66.4348 7.499 67.1888 7.759C67.9428 7.993 68.5668 8.344 69.0608 8.812C69.7368 9.436 70.1788 10.203 70.3868 11.113C70.5948 11.997 70.6988 13.063 70.6988 14.311V25.153C70.6988 25.803 70.7898 26.271 70.9718 26.557C71.1798 26.843 71.4918 26.986 71.9078 26.986C72.1938 26.986 72.4668 26.921 72.7268 26.791C72.9868 26.661 73.2988 26.453 73.6628 26.167L74.0918 26.83C73.5458 27.246 73.0258 27.597 72.5318 27.883C72.0378 28.143 71.3748 28.273 70.5428 28.273C69.7888 28.273 69.1648 28.143 68.6708 27.883C68.1768 27.623 67.7998 27.246 67.5398 26.752C67.3058 26.232 67.1888 25.582 67.1888 24.802C66.4868 25.972 65.6418 26.843 64.6538 27.415C63.6918 27.987 62.5998 28.273 61.3778 28.273ZM62.7818 26.713C63.6398 26.713 64.4328 26.466 65.1608 25.972C65.9148 25.478 66.5908 24.737 67.1888 23.749V16.105C66.8768 16.547 66.4218 16.924 65.8238 17.236C65.2258 17.522 64.5758 17.821 63.8738 18.133C63.1718 18.419 62.4958 18.77 61.8458 19.186C61.2218 19.576 60.7018 20.096 60.2858 20.746C59.8698 21.396 59.6618 22.241 59.6618 23.281C59.6618 24.321 59.9348 25.153 60.4808 25.777C61.0528 26.401 61.8198 26.713 62.7818 26.713ZM94.2176 7.369C95.2056 7.369 96.0246 7.499 96.6746 7.759C97.3506 8.019 97.9096 8.383 98.3516 8.851C98.8456 9.371 99.1966 10.021 99.4046 10.801C99.6126 11.581 99.7166 12.634 99.7166 13.96V24.373C99.7166 25.465 99.9376 26.206 100.38 26.596C100.848 26.986 101.615 27.181 102.681 27.181V28C102.239 27.974 101.563 27.948 100.653 27.922C99.7426 27.87 98.8586 27.844 98.0006 27.844C97.1426 27.844 96.2976 27.87 95.4656 27.922C94.6596 27.948 94.0486 27.974 93.6326 28V27.181C94.5686 27.181 95.2316 26.986 95.6216 26.596C96.0116 26.206 96.2066 25.465 96.2066 24.373V13.102C96.2066 12.296 96.1416 11.555 96.0116 10.879C95.8816 10.203 95.5826 9.657 95.1146 9.241C94.6726 8.825 93.9836 8.617 93.0476 8.617C91.9556 8.617 90.9936 8.929 90.1616 9.553C89.3556 10.177 88.7186 11.035 88.2506 12.127C87.8086 13.193 87.5876 14.389 87.5876 15.715V24.373C87.5876 25.465 87.7826 26.206 88.1726 26.596C88.5626 26.986 89.2256 27.181 90.1616 27.181V28C89.7456 27.974 89.1216 27.948 88.2896 27.922C87.4836 27.87 86.6516 27.844 85.7936 27.844C84.9356 27.844 84.0516 27.87 83.1416 27.922C82.2316 27.948 81.5556 27.974 81.1136 28V27.181C82.1796 27.181 82.9336 26.986 83.3756 26.596C83.8436 26.206 84.0776 25.465 84.0776 24.373V12.166C84.0776 10.996 83.8696 10.138 83.4536 9.592C83.0376 9.02 82.2576 8.734 81.1136 8.734V7.915C81.9456 7.993 82.7516 8.032 83.5316 8.032C84.2856 8.032 85.0006 7.993 85.6766 7.915C86.3786 7.811 87.0156 7.668 87.5876 7.486V12.088C88.2636 10.32 89.1996 9.098 90.3956 8.422C91.6176 7.72 92.8916 7.369 94.2176 7.369ZM115.772 28.273C114.706 28.273 113.783 28.078 113.003 27.688C112.223 27.272 111.625 26.7 111.209 25.972C110.819 25.244 110.624 24.399 110.624 23.437C110.624 22.293 110.884 21.357 111.404 20.629C111.95 19.901 112.639 19.316 113.471 18.874C114.303 18.432 115.174 18.068 116.084 17.782C117.02 17.47 117.904 17.184 118.736 16.924C119.568 16.638 120.244 16.313 120.764 15.949C121.31 15.585 121.583 15.104 121.583 14.506V12.088C121.583 10.996 121.414 10.164 121.076 9.592C120.764 9.02 120.335 8.643 119.789 8.461C119.243 8.253 118.632 8.149 117.956 8.149C117.306 8.149 116.604 8.24 115.85 8.422C115.122 8.604 114.537 8.981 114.095 9.553C114.589 9.657 115.018 9.917 115.382 10.333C115.746 10.749 115.928 11.282 115.928 11.932C115.928 12.582 115.72 13.102 115.304 13.492C114.888 13.856 114.355 14.038 113.705 14.038C112.951 14.038 112.392 13.804 112.028 13.336C111.69 12.842 111.521 12.296 111.521 11.698C111.521 11.022 111.69 10.476 112.028 10.06C112.366 9.644 112.795 9.254 113.315 8.89C113.913 8.474 114.68 8.123 115.616 7.837C116.578 7.525 117.657 7.369 118.853 7.369C119.919 7.369 120.829 7.499 121.583 7.759C122.337 7.993 122.961 8.344 123.455 8.812C124.131 9.436 124.573 10.203 124.781 11.113C124.989 11.997 125.093 13.063 125.093 14.311V25.153C125.093 25.803 125.184 26.271 125.366 26.557C125.574 26.843 125.886 26.986 126.302 26.986C126.588 26.986 126.861 26.921 127.121 26.791C127.381 26.661 127.693 26.453 128.057 26.167L128.486 26.83C127.94 27.246 127.42 27.597 126.926 27.883C126.432 28.143 125.769 28.273 124.937 28.273C124.183 28.273 123.559 28.143 123.065 27.883C122.571 27.623 122.194 27.246 121.934 26.752C121.7 26.232 121.583 25.582 121.583 24.802C120.881 25.972 120.036 26.843 119.048 27.415C118.086 27.987 116.994 28.273 115.772 28.273ZM117.176 26.713C118.034 26.713 118.827 26.466 119.555 25.972C120.309 25.478 120.985 24.737 121.583 23.749V16.105C121.271 16.547 120.816 16.924 120.218 17.236C119.62 17.522 118.97 17.821 118.268 18.133C117.566 18.419 116.89 18.77 116.24 19.186C115.616 19.576 115.096 20.096 114.68 20.746C114.264 21.396 114.056 22.241 114.056 23.281C114.056 24.321 114.329 25.153 114.875 25.777C115.447 26.401 116.214 26.713 117.176 26.713ZM139.291 23.554C139.967 23.554 140.552 23.801 141.046 24.295C141.54 24.789 141.787 25.374 141.787 26.05C141.787 26.726 141.54 27.311 141.046 27.805C140.552 28.299 139.967 28.546 139.291 28.546C138.615 28.546 138.03 28.299 137.536 27.805C137.042 27.311 136.795 26.726 136.795 26.05C136.795 25.374 137.042 24.789 137.536 24.295C138.03 23.801 138.615 23.554 139.291 23.554Z" fill="#282725"/>
</svg>
